<svg width="13" height="7" viewBox="0 0 13 7" fill="none" xmlns="http://www.w3.org/2000/svg">
<path fill-rule="evenodd" clip-rule="evenodd" d="M0.19187 0.334507C-0.0593583 0.588308 -0.0559645 0.99536 0.199455 1.24432L5.61173 6.52107C5.73105 6.6392 5.87425 6.73287 6.03263 6.79636C6.19101 6.85986 6.36126 6.89187 6.53302 6.89044C6.70478 6.889 6.87447 6.85416 7.03177 6.78803C7.18907 6.7219 7.33069 6.62587 7.44802 6.50576L12.8109 1.10064C12.9307 0.977982 12.9973 0.816321 12.9971 0.648485C12.9969 0.480649 12.9299 0.319223 12.8098 0.196989C12.7505 0.136435 12.6788 0.0881862 12.5992 0.0552297C12.5196 0.0222732 12.4337 0.00531107 12.3469 0.00539367C12.2602 0.00547627 12.1743 0.0226019 12.0947 0.0557099C12.0151 0.088818 11.9434 0.137204 11.8842 0.19787L6.97741 5.14488C6.91874 5.20498 6.84791 5.25304 6.76923 5.28613C6.69055 5.31923 6.60567 5.33666 6.51975 5.33738C6.43382 5.3381 6.34866 5.32208 6.26944 5.2903C6.19022 5.25852 6.1186 5.21165 6.05894 5.15253L1.10969 0.326855C1.05008 0.267757 0.978517 0.220895 0.899351 0.189124C0.820185 0.157352 0.735076 0.141337 0.649207 0.142053C0.563338 0.142769 0.478507 0.160201 0.399881 0.193288C0.321256 0.226375 0.250482 0.274423 0.19187 0.334507Z" fill="#1E1E1F"/>
</svg>
