<svg width="14" height="8" viewBox="0 0 14 8" fill="none" xmlns="http://www.w3.org/2000/svg">
<path fill-rule="evenodd" clip-rule="evenodd" d="M13.7954 7.73345C14.0684 7.4389 14.0684 6.96255 13.7954 6.66874L8.01087 0.441212C7.88337 0.301811 7.7299 0.190811 7.55981 0.114962C7.38973 0.039113 7.20657 -4.76837e-07 7.02147 -4.76837e-07C6.83638 -4.76837e-07 6.65322 0.039113 6.48313 0.114962C6.31305 0.190811 6.15958 0.301811 6.03207 0.441212L0.204868 6.71383C0.0746377 6.85619 0.00143974 7.04471 0.000139688 7.24111C-0.00116037 7.43751 0.069535 7.62706 0.197868 7.77126C0.261243 7.8427 0.338058 7.89986 0.423557 7.9392C0.509056 7.97854 0.601418 7.99923 0.694924 7.99998C0.788429 8.00073 0.881087 7.98153 0.967161 7.94356C1.05323 7.9056 1.13089 7.84967 1.19532 7.77926L6.52695 2.03827C6.59071 1.96852 6.66746 1.91297 6.75254 1.87501C6.83761 1.83705 6.92924 1.81748 7.02182 1.81748C7.11441 1.81748 7.20603 1.83705 7.29111 1.87501C7.37619 1.91297 7.45294 1.96852 7.5167 2.03827L12.8063 7.73345C12.87 7.80318 12.9467 7.85872 13.0317 7.89667C13.1168 7.93462 13.2083 7.95419 13.3009 7.95419C13.3934 7.95419 13.485 7.93462 13.57 7.89667C13.655 7.85872 13.7317 7.80318 13.7954 7.73345Z" fill="black"/>
</svg>
