<svg width="25" height="25" viewBox="0 0 25 25" fill="none" xmlns="http://www.w3.org/2000/svg">
<path d="M24.667 11.6966L18.9852 6.01479C18.7709 5.80779 18.4838 5.69325 18.1859 5.69584C17.8879 5.69843 17.6029 5.81794 17.3922 6.02863C17.1815 6.23932 17.062 6.52434 17.0594 6.82229C17.0569 7.12024 17.1714 7.40729 17.3784 7.62161L21.1204 11.3637H7.95452C7.65314 11.3637 7.3641 11.4834 7.15099 11.6965C6.93788 11.9096 6.81816 12.1986 6.81816 12.5C6.81816 12.8014 6.93788 13.0904 7.15099 13.3035C7.3641 13.5167 7.65314 13.6364 7.95452 13.6364H21.1204L17.3784 17.3784C17.2699 17.4833 17.1833 17.6086 17.1237 17.7473C17.0642 17.8859 17.0328 18.035 17.0315 18.1859C17.0302 18.3368 17.059 18.4864 17.1161 18.6261C17.1732 18.7658 17.2576 18.8926 17.3643 18.9993C17.471 19.106 17.5979 19.1904 17.7375 19.2475C17.8772 19.3047 18.0268 19.3334 18.1777 19.3321C18.3286 19.3308 18.4777 19.2995 18.6163 19.2399C18.755 19.1804 18.8804 19.0938 18.9852 18.9852L24.667 13.3034C24.8801 13.0903 24.9997 12.8013 24.9997 12.5C24.9997 12.1987 24.8801 11.9097 24.667 11.6966Z" fill="#707070"/>
<path d="M5.68182 22.7273H2.27273V2.27273H5.68182C5.9832 2.27273 6.27224 2.153 6.48535 1.93989C6.69846 1.72678 6.81818 1.43775 6.81818 1.13636C6.81818 0.834981 6.69846 0.545943 6.48535 0.332833C6.27224 0.119724 5.9832 0 5.68182 0H1.13636C0.834981 0 0.545943 0.119724 0.332833 0.332833C0.119724 0.545943 0 0.834981 0 1.13636V23.8636C0 24.165 0.119724 24.4541 0.332833 24.6672C0.545943 24.8803 0.834981 25 1.13636 25H5.68182C5.9832 25 6.27224 24.8803 6.48535 24.6672C6.69846 24.4541 6.81818 24.165 6.81818 23.8636C6.81818 23.5623 6.69846 23.2732 6.48535 23.0601C6.27224 22.847 5.9832 22.7273 5.68182 22.7273Z" fill="#707070"/>
</svg>
