<svg width="25" height="25" viewBox="0 0 25 25" fill="none" xmlns="http://www.w3.org/2000/svg">
<path d="M12.4995 25C10.0273 24.9999 7.61056 24.2667 5.55501 22.8931C3.49946 21.5195 1.89738 19.5673 0.951366 17.2832C0.00534857 14.9991 -0.242121 12.4858 0.240251 10.0611C0.722623 7.63634 1.91317 5.4091 3.66135 3.66099C5.40952 1.91289 7.63681 0.722427 10.0616 0.240153C12.4863 -0.242122 14.9996 0.00544972 17.2837 0.95156C19.5677 1.89767 21.5199 3.49983 22.8934 5.55543C24.2669 7.61103 25 10.0278 25 12.5C24.9961 15.8141 23.6778 18.9914 21.3344 21.3347C18.9909 23.6781 15.8136 24.9963 12.4995 25ZM12.4995 1.51608C10.3271 1.51618 8.20352 2.16046 6.39729 3.36745C4.59106 4.57444 3.1833 6.28993 2.35203 8.29699C1.52076 10.304 1.30332 12.5125 1.72719 14.6432C2.15106 16.7738 3.19722 18.7309 4.73337 20.267C6.26952 21.8031 8.22667 22.8491 10.3573 23.2729C12.488 23.6967 14.6965 23.4791 16.7035 22.6478C18.7105 21.8164 20.4259 20.4086 21.6328 18.6023C22.8397 16.796 23.4839 14.6724 23.4839 12.5C23.4806 9.58782 22.3222 6.79588 20.2629 4.73671C18.2037 2.67753 15.4117 1.51929 12.4995 1.51608Z" fill="#707070"/>
<path d="M12.4995 19.0545C12.2321 19.0525 11.9761 18.9454 11.787 18.7562C11.5979 18.5671 11.4908 18.3112 11.4888 18.0438C11.488 17.9775 11.4948 17.9114 11.509 17.8467C11.5197 17.7806 11.5384 17.7162 11.5646 17.6546C11.5917 17.5946 11.6238 17.537 11.6606 17.4823C11.7358 17.3739 11.83 17.2799 11.9386 17.2049C11.9917 17.1659 12.0494 17.1337 12.1104 17.1088C12.1721 17.0831 12.2365 17.0645 12.3024 17.0533C12.4652 17.0211 12.6334 17.0297 12.7921 17.0781C12.9508 17.1266 13.095 17.2136 13.2121 17.3312C13.261 17.3757 13.3035 17.4267 13.3384 17.4828C13.3752 17.5375 13.4073 17.5951 13.4344 17.6551C13.4606 17.7167 13.4793 17.7811 13.49 17.8472C13.5042 17.9119 13.511 17.978 13.5102 18.0443C13.5082 18.3117 13.4011 18.5676 13.212 18.7567C13.0229 18.9459 12.7669 19.053 12.4995 19.055V19.0545ZM8.8104 9.38143C8.68482 9.38087 8.56135 9.34911 8.45108 9.28902C8.34082 9.22893 8.24721 9.14239 8.17866 9.03716C8.11012 8.93194 8.06879 8.81134 8.05839 8.68619C8.04798 8.56105 8.06884 8.43528 8.11907 8.32018C8.16202 8.22316 9.21013 5.94501 12.5 5.94501C12.701 5.94501 12.8939 6.02487 13.036 6.16703C13.1782 6.30919 13.258 6.502 13.258 6.70304C13.258 6.90409 13.1782 7.0969 13.036 7.23905C12.8939 7.38121 12.701 7.46108 12.5 7.46108C10.2304 7.46108 9.53002 8.88366 9.50122 8.9443C9.43914 9.07499 9.3413 9.18542 9.21904 9.26279C9.09677 9.34015 8.95508 9.38129 8.8104 9.38143Z" fill="#707070"/>
<path d="M12.4995 15.987C12.2985 15.987 12.1056 15.9071 11.9635 15.765C11.8213 15.6228 11.7415 15.43 11.7415 15.2289V14.2728C11.7415 13.1049 12.7572 12.4601 13.7391 11.837C15.1314 10.9526 15.9627 10.3361 15.4851 8.91754C15.3942 8.74218 14.6533 7.46161 12.4995 7.46161C12.2985 7.46161 12.1056 7.38175 11.9635 7.23959C11.8213 7.09743 11.7415 6.90462 11.7415 6.70358C11.7415 6.50253 11.8213 6.30972 11.9635 6.16756C12.1056 6.0254 12.2985 5.94554 12.4995 5.94554C15.7894 5.94554 16.8375 8.2247 16.8804 8.32072C16.889 8.33942 16.8961 8.35811 16.9027 8.37681C17.8345 11.032 15.8586 12.2857 14.5517 13.1155C13.9453 13.5006 13.2575 13.9373 13.2575 14.2718V15.2289C13.2575 15.43 13.1777 15.6228 13.0355 15.765C12.8933 15.9071 12.7005 15.987 12.4995 15.987Z" fill="#707070"/>
</svg>
