<svg width="26" height="23" viewBox="0 0 26 23" fill="none" xmlns="http://www.w3.org/2000/svg">
<path d="M24.5484 10.1827C24.3716 10.1816 24.1995 10.1252 24.0563 10.0215L12.6686 1.89228L1.28097 10.0215C1.09828 10.1297 0.881662 10.1654 0.67388 10.1217C0.466098 10.078 0.282252 9.95801 0.158636 9.78537C0.0350204 9.61274 -0.0193821 9.40003 0.00616839 9.18924C0.0317189 8.97845 0.135366 8.7849 0.296647 8.6468L12.1765 0.161226C12.3202 0.0589034 12.4922 0.00391737 12.6686 0.00391737C12.845 0.00391737 13.0171 0.0589034 13.1608 0.161226L25.0406 8.6468C25.1855 8.75169 25.2935 8.89967 25.3493 9.06961C25.405 9.23955 25.4057 9.42277 25.3511 9.5931C25.2965 9.76342 25.1895 9.91215 25.0453 10.018C24.9012 10.1239 24.7273 10.1815 24.5484 10.1827ZM3.33448 5.09135C3.10943 5.09135 2.8936 5.00194 2.73446 4.84281C2.57533 4.68367 2.48593 4.46784 2.48593 4.24279V0.848558C2.48593 0.623506 2.57533 0.407672 2.73446 0.248537C2.8936 0.0894013 3.10943 0 3.33448 0H6.72871C6.95377 0 7.1696 0.0894013 7.32874 0.248537C7.48787 0.407672 7.57727 0.623506 7.57727 0.848558C7.57727 1.07361 7.48787 1.28944 7.32874 1.44858C7.1696 1.60771 6.95377 1.69712 6.72871 1.69712H4.18304V4.24279C4.18304 4.46784 4.09364 4.68367 3.9345 4.84281C3.77537 5.00194 3.55954 5.09135 3.33448 5.09135Z" fill="white"/>
<path d="M20.3056 22.0625H16.0628C15.8378 22.0625 15.622 21.9731 15.4628 21.814C15.3037 21.6548 15.2143 21.439 15.2143 21.2139V15.274H10.1229V21.2139C10.1229 21.439 10.0335 21.6548 9.87441 21.814C9.71527 21.9731 9.49944 22.0625 9.27439 22.0625H5.0316C4.35644 22.0625 3.70894 21.7943 3.23154 21.3169C2.75413 20.8395 2.48593 20.192 2.48593 19.5168V11.0313C2.48593 10.8062 2.57533 10.5904 2.73446 10.4312C2.8936 10.2721 3.10943 10.1827 3.33448 10.1827C3.55953 10.1827 3.77537 10.2721 3.9345 10.4312C4.09364 10.5904 4.18304 10.8062 4.18304 11.0313V19.5168C4.18304 19.7419 4.27244 19.9577 4.43158 20.1168C4.59071 20.276 4.80655 20.3654 5.0316 20.3654H8.42583V14.4255C8.42583 14.2004 8.51523 13.9846 8.67437 13.8255C8.8335 13.6663 9.04934 13.5769 9.27439 13.5769H16.0628C16.2879 13.5769 16.5037 13.6663 16.6629 13.8255C16.822 13.9846 16.9114 14.2004 16.9114 14.4255V20.3654H20.3056C20.5307 20.3654 20.7465 20.276 20.9057 20.1168C21.0648 19.9577 21.1542 19.7419 21.1542 19.5168V11.0313C21.1542 10.8062 21.2436 10.5904 21.4027 10.4312C21.5619 10.2721 21.7777 10.1827 22.0028 10.1827C22.2278 10.1827 22.4436 10.2721 22.6028 10.4312C22.7619 10.5904 22.8513 10.8062 22.8513 11.0313V19.5168C22.8513 20.192 22.5831 20.8395 22.1057 21.3169C21.6283 21.7943 20.9808 22.0625 20.3056 22.0625V22.0625Z" fill="white"/>
</svg>
