<svg width="26" height="27" viewBox="0 0 26 27" fill="none" xmlns="http://www.w3.org/2000/svg">
<rect y="0.5" width="26" height="26" rx="7.95294" fill="#0866D1"/>
<path fill-rule="evenodd" clip-rule="evenodd" d="M17.8186 10.0531L13.8761 13.9956L17.8186 17.9381C18.0605 18.1801 18.0605 18.5724 17.8185 18.8144C17.7023 18.9305 17.5448 18.9957 17.3806 18.9957C17.2162 18.996 17.0585 18.9306 16.9425 18.8142L13 14.8717L9.05755 18.8142C8.94153 18.9306 8.78384 18.996 8.61949 18.9957C8.27734 18.9957 8 18.7183 8 18.3761C8.00008 18.2118 8.06527 18.0543 8.18144 17.9381L12.1239 13.9956L8.18144 10.0531C7.94199 9.80878 7.94592 9.41656 8.19029 9.17711C8.43117 8.94107 8.81666 8.94107 9.05755 9.17711L13 13.1195L16.9425 9.17704C17.1869 8.93759 17.5791 8.94152 17.8186 9.18589C18.0547 9.42677 18.0547 9.81226 17.8186 10.0531Z" fill="white"/>
</svg>
