<svg width="106" height="85" viewBox="0 0 106 85" fill="none" xmlns="http://www.w3.org/2000/svg">
<path d="M60.7051 3.75809L67.9118 10.9654C68.0575 11.2256 68.1953 11.4938 68.3294 11.7614C68.3299 11.7674 68.3328 11.7729 68.3374 11.7768C68.341 11.7804 68.341 11.7804 68.341 11.7884C69.934 14.9961 70.7504 18.5334 70.7245 22.1147C70.6985 25.6961 69.8309 29.2211 68.1916 32.4054C67.9118 32.9455 67.6129 33.4739 67.2872 33.9914C67.2844 33.9982 67.2807 34.0045 67.2762 34.0104C66.3589 35.4734 65.2792 36.8281 64.0577 38.0488L63.893 38.2135C65.7127 36.1019 66.956 33.556 67.5024 30.8226C68.0488 28.0892 67.8797 25.261 67.0116 22.6122L67.008 22.6085C66.28 20.3788 65.0752 18.3344 63.4772 16.6174C61.8793 14.9004 59.9266 13.5519 57.7548 12.6659C57.276 12.3554 56.7855 12.0639 56.2852 11.7957C56.0782 11.6812 55.8566 11.5698 55.6453 11.4626C55.5149 11.3934 55.3808 11.3285 55.2503 11.2673C55.0936 11.1944 54.9362 11.1142 54.7715 11.0487C54.6606 10.9991 54.5455 10.9452 54.4267 10.8956C54.2124 10.8037 53.9901 10.7119 53.7678 10.6194C53.5186 10.5239 53.2737 10.4241 53.0208 10.3402C52.8824 10.2943 52.7526 10.2477 52.6105 10.2061C52.4844 10.1559 52.3423 10.1136 52.2082 10.072C52.0741 10.0303 51.9284 9.98381 51.7832 9.94523C51.5763 9.87665 51.3656 9.82644 51.1587 9.77316C50.8751 9.69601 50.5879 9.6311 50.3044 9.5619C50.2891 9.56986 50.2848 9.56619 50.2695 9.55823C49.9744 9.49332 49.6756 9.43209 49.381 9.38984C49.0859 9.33227 48.7834 9.28267 48.4803 9.24777C48.1771 9.21287 47.8826 9.16388 47.5764 9.14061C47.5557 9.14355 47.5346 9.14104 47.5152 9.13326C47.236 9.10632 46.9598 9.08305 46.6763 9.0757C46.3738 9.05672 46.0786 9.04508 45.7725 9.04508C45.4694 9.03345 45.1705 9.03345 44.8601 9.04508C44.5809 9.04876 44.293 9.06039 44.0028 9.08305H43.9575C43.8081 9.09468 43.6544 9.10265 43.5092 9.11795C43.3519 9.12898 43.1988 9.1449 43.0494 9.16388C42.7542 9.19082 42.4481 9.22879 42.1486 9.27471C41.9919 9.29431 41.8345 9.31329 41.6814 9.34391C41.5283 9.37453 41.3709 9.40147 41.2179 9.42413C41.1529 9.43576 41.0917 9.45107 41.0262 9.4627C40.7506 9.51598 40.4671 9.57782 40.1873 9.64273C39.8615 9.7156 39.5394 9.79949 39.2179 9.89196C39.0912 9.92625 38.9687 9.95687 38.8462 10.0028C38.7195 10.0371 38.605 10.0757 38.4788 10.1179C38.3578 10.1505 38.2389 10.1902 38.1225 10.2367C37.8506 10.3249 37.575 10.4241 37.3025 10.5276C37.2223 10.5545 37.1378 10.5851 37.0576 10.6194C36.8623 10.6923 36.6743 10.7805 36.4789 10.8644C36.44 10.876 36.4028 10.8926 36.3681 10.914C36.2297 10.9672 36.0956 11.0248 35.9615 11.0903C35.8274 11.1558 35.7092 11.2048 35.5788 11.274L35.5684 11.2734H35.5604C35.4343 11.331 35.3081 11.3959 35.1777 11.4651C34.9591 11.5686 34.7491 11.6873 34.5378 11.7988L42.5724 3.76422C43.7618 2.5714 45.1748 1.62492 46.7305 0.978995C48.2861 0.333071 49.954 0.000383264 51.6385 -1.4901e-05C53.3229 -0.000413065 54.9909 0.33149 56.547 0.97668C58.1029 1.62187 59.5164 2.56767 60.7063 3.75993L60.7051 3.75809Z" fill="url(#paint0_linear_115_2)"/>
<path d="M67.9117 10.9672L75.5213 18.5762C76.7147 19.7658 77.6615 21.1792 78.3076 22.7355C78.9537 24.2918 79.2863 25.9602 79.2863 27.6453C79.2863 29.3303 78.9537 30.9988 78.3076 32.5551C77.6615 34.1113 76.7147 35.5248 75.5213 36.7144L65.8505 46.3845C65.5364 46.4844 65.2186 46.5799 64.8965 46.6644L64.8928 46.6681C64.8848 46.6681 64.8848 46.6681 64.8812 46.6723C63.9964 46.9093 63.0983 47.0933 62.1917 47.2235C57.3422 47.9288 52.3944 47.0497 48.0846 44.7171C47.1124 44.1944 46.1813 43.599 45.299 42.9358L45.2911 42.9279C44.8734 42.618 44.4595 42.2886 44.0615 41.9432C47.1204 43.5636 50.6183 44.1604 54.0414 43.646C57.4646 43.1316 60.6326 41.5332 63.0803 39.0854C63.3681 38.7976 63.6399 38.5104 63.8928 38.2116L64.0576 38.0469C65.2791 36.8262 66.3587 35.4715 67.276 34.0085C67.2805 34.0026 67.2842 33.9963 67.2871 33.9895C67.6128 33.472 67.9117 32.9436 68.1915 32.4035C69.8307 29.2193 70.6984 25.6942 70.7243 22.1128C70.7503 18.5315 69.9338 14.9942 68.3409 11.7865C68.3409 11.7785 68.3409 11.7785 68.3372 11.7749C68.3326 11.771 68.3298 11.7655 68.3293 11.7596C68.1952 11.4938 68.0574 11.2256 67.9117 10.9672Z" fill="url(#paint1_linear_115_2)"/>
<path d="M65.8506 46.3827L60.7069 51.5264C58.3016 53.9315 55.0395 55.2827 51.6381 55.2827C48.2366 55.2827 44.9745 53.9315 42.5692 51.5264L34.7606 43.7178C34.5194 43.1704 34.2971 42.6107 34.1017 42.0473V42.032C33.9946 41.7258 33.8948 41.4197 33.8066 41.1086C33.749 40.9212 33.6958 40.7295 33.6382 40.5416C33.5464 40.1742 33.4545 39.8135 33.3773 39.4461C33.3008 39.0934 33.2279 38.7449 33.1667 38.3849C33.1055 38.0248 33.0595 37.6642 33.0136 37.3041C32.9677 36.944 32.9371 36.584 32.9101 36.2276C32.8832 35.8712 32.8642 35.5075 32.8562 35.1395C32.8483 34.7714 32.8452 34.4151 32.8562 34.0513C32.8715 33.3312 32.9218 32.6068 33.0057 31.8867C33.0865 31.1776 33.2053 30.4783 33.3504 29.779C33.3543 29.7608 33.3596 29.7431 33.3663 29.7257C33.4386 29.3773 33.5268 29.0283 33.6113 28.6847C33.6197 28.6681 33.6249 28.65 33.6266 28.6315L33.7643 28.1483C33.8868 27.7344 34.0172 27.3284 34.163 26.9236C34.2279 26.7283 34.3044 26.5366 34.3773 26.3413C34.4698 26.1037 34.5653 25.8624 34.6651 25.6322C34.7606 25.4142 34.8604 25.1919 34.9596 24.9696L34.9639 24.958C35.0288 24.8239 35.0937 24.6825 35.1593 24.5484C35.2548 24.3604 35.3546 24.1614 35.4581 23.9734C35.5226 23.8344 35.5941 23.6989 35.6724 23.5674C35.8524 23.2416 36.0398 22.9158 36.2394 22.6017C36.2375 22.6337 36.2336 22.6656 36.2278 22.6972C35.6432 24.5333 35.389 26.4586 35.4771 28.3835C35.6058 31.195 36.465 33.9245 37.97 36.3029C39.4751 38.6812 41.5739 40.6262 44.0597 41.9463C44.4577 42.2916 44.8717 42.6199 45.2893 42.9309L45.2972 42.9389C46.1795 43.6021 47.1107 44.1975 48.0828 44.7202C52.3926 47.0528 57.3404 47.9318 62.19 47.2265C63.0966 47.0964 63.9947 46.9123 64.8794 46.6754C64.8831 46.6711 64.8831 46.6711 64.891 46.6711L64.8947 46.6674C65.2186 46.578 65.5364 46.4831 65.8506 46.3827Z" fill="url(#paint2_linear_115_2)"/>
<path d="M57.7008 12.6322C57.2415 12.3334 56.7663 12.0499 56.2875 11.7927C56.1301 11.7045 55.958 11.6163 55.7933 11.5361C55.7241 11.4981 55.6745 11.4712 55.6476 11.4596C55.5171 11.3904 55.383 11.3255 55.2526 11.2642C55.0958 11.1914 54.9385 11.1111 54.7737 11.0456C54.6629 10.996 54.5478 10.9421 54.429 10.8925C54.2147 10.8007 53.9924 10.7088 53.7701 10.6164C53.5209 10.5208 53.2717 10.4253 53.0231 10.3371C52.8847 10.2912 52.7548 10.2447 52.6128 10.203C52.483 10.1571 52.3446 10.1106 52.2105 10.0689C52.0764 10.0273 51.9306 9.98075 51.7855 9.94217C51.5785 9.87359 51.3679 9.82337 51.1609 9.7701C50.8774 9.69294 50.5902 9.62804 50.3067 9.55884C50.2914 9.5668 50.2871 9.56313 50.2718 9.55517C49.973 9.49393 49.6778 9.43637 49.3833 9.38677C49.0887 9.33717 48.7856 9.28696 48.4825 9.24471C48.1794 9.20246 47.8849 9.16817 47.5787 9.13755C47.558 9.14055 47.5369 9.13798 47.5175 9.1302C47.234 9.10693 46.9584 9.08427 46.6786 9.07264C46.3724 9.05733 46.0772 9.0457 45.7747 9.04202C45.4722 9.03835 45.1728 9.03039 44.8623 9.04202C44.5831 9.0457 44.2953 9.05733 44.0051 9.07999H43.9573C43.8079 9.09162 43.6542 9.09958 43.5091 9.11489L43.0492 9.16082C42.754 9.18776 42.4479 9.22573 42.1484 9.27165C41.9953 9.29492 41.8386 9.32186 41.6812 9.34085C41.5238 9.35983 41.3708 9.39841 41.2177 9.42106C41.1528 9.4327 41.0915 9.44801 41.026 9.45964C40.7505 9.51291 40.4669 9.57476 40.1871 9.63967C39.8613 9.71254 39.5392 9.79643 39.2178 9.88889C39.091 9.92319 38.9685 9.9538 38.8461 9.99973C38.7193 10.034 38.6048 10.0726 38.4787 10.1148C38.3577 10.1475 38.2387 10.1872 38.1223 10.2336C37.8504 10.3218 37.5785 10.4173 37.3023 10.5245C37.2221 10.5515 37.1376 10.5821 37.0574 10.6164C36.8584 10.6935 36.6667 10.7701 36.4787 10.8613C36.4399 10.8729 36.4026 10.8896 36.3679 10.9109C36.2295 10.9642 36.0954 11.0217 35.9613 11.0873C35.8272 11.1528 35.709 11.2018 35.5786 11.271L35.5682 11.2734H35.5602C35.4341 11.331 35.3079 11.3959 35.1775 11.4651C34.9589 11.5686 34.7489 11.6873 34.5376 11.7988L27.7596 18.5762L27.7559 18.5799C26.5652 19.7702 25.6206 21.1834 24.9762 22.7388C24.3317 24.2942 24 25.9614 24 27.645C24 29.3287 24.3317 30.9958 24.9762 32.5513C25.6206 34.1067 26.5652 35.5199 27.7559 36.7102L34.7636 43.7178C34.5186 43.1588 34.2963 42.5917 34.101 42.0204C33.8671 41.3505 33.6724 40.6733 33.5034 39.9899C33.4568 39.8135 33.4189 39.6298 33.3809 39.4461C33.3044 39.0934 33.2315 38.745 33.1702 38.3849C33.109 38.0249 33.0551 37.6722 33.0172 37.3041C32.9712 36.9521 32.9327 36.5914 32.9137 36.2276C32.8947 35.8639 32.8641 35.5032 32.8598 35.1395C32.8445 34.7795 32.8445 34.4114 32.8598 34.0514C32.8751 33.3313 32.921 32.6032 33.0092 31.8867C33.0895 31.1825 33.2059 30.4829 33.3582 29.7907C33.3597 29.7687 33.3636 29.7469 33.3699 29.7258C33.4385 29.3884 33.515 29.0589 33.6032 28.7258C33.8869 27.6706 34.2428 26.6361 34.6687 25.6298C34.7642 25.4118 34.864 25.1895 34.9632 24.9673L34.9675 24.9556C35.0324 24.8215 35.0973 24.6801 35.1628 24.546C35.1767 24.5254 35.1882 24.5035 35.1971 24.4804C35.2816 24.3041 35.3735 24.1357 35.4616 23.971C35.5261 23.8321 35.5976 23.6966 35.676 23.565C35.856 23.2392 36.0434 22.9135 36.243 22.5993C36.2356 22.6299 36.2393 22.6642 36.2314 22.6948C36.251 22.6299 36.2736 22.5767 36.2889 22.5148L36.3006 22.5038C37.0871 20.1264 38.4218 17.9672 40.1969 16.2009C43.0878 13.3033 46.9722 11.6132 51.0629 11.473C51.0822 11.47 51.1018 11.4713 51.1205 11.4767C52.388 11.4344 53.656 11.5425 54.8981 11.7988H54.906C55.1203 11.8447 55.3347 11.8906 55.5496 11.9439C56.3007 12.1311 57.0375 12.372 57.754 12.6647C57.7357 12.6549 57.7178 12.6441 57.7008 12.6322Z" fill="url(#paint3_linear_115_2)"/>
<g style="mix-blend-mode:multiply" opacity="0.08">
<path d="M61.0534 4.10895L67.9116 10.9672C70.2941 15.2881 71.2065 20.2667 70.5113 25.1516C69.8161 30.0366 67.5509 34.5629 64.0576 38.0475L63.8928 38.2122C65.7125 36.1007 66.9558 33.5548 67.5022 30.8214C68.0486 28.088 67.8796 25.2598 67.0115 22.6109C67.0115 22.6029 67.0078 22.6072 67.0078 22.6072C66.6588 17.5052 65.0342 11.3217 61.0534 4.10895Z" fill="black"/>
</g>
<g style="mix-blend-mode:multiply" opacity="0.08">
<path d="M70.3139 41.9194L65.8505 46.3828C62.1419 47.5668 58.1917 47.7803 54.3771 47.0029C50.5625 46.2254 47.0109 44.483 44.0615 41.942C46.5538 43.2635 49.349 43.9083 52.1683 43.8121C58.2769 44.825 64.5457 44.1711 70.3139 41.9194Z" fill="black"/>
</g>
<g style="mix-blend-mode:multiply" opacity="0.08">
<path d="M36.2418 22.5975C36.2399 22.6296 36.236 22.6615 36.2302 22.6931C35.6456 24.5291 35.3914 26.4544 35.4795 28.3793C35.1617 32.8579 35.5138 39.1798 38.0348 46.9884L34.763 43.7161C34.3873 42.8685 34.0686 41.9969 33.809 41.1069C33.7514 40.9195 33.6982 40.7278 33.6406 40.5398C33.5487 40.1724 33.4569 39.8118 33.3797 39.4444C33.3032 39.0917 33.2303 38.7432 33.1691 38.3832C33.1079 38.0231 33.0619 37.6624 33.016 37.3024C32.9701 36.9423 32.9395 36.5822 32.9125 36.2258C32.8856 35.8694 32.8666 35.5058 32.8586 35.1377C32.8507 34.7697 32.8476 34.4133 32.8586 34.0496C32.8739 33.3295 32.9241 32.6051 33.008 31.885C33.0889 31.1759 33.2077 30.4766 33.3528 29.7773C33.3567 29.7591 33.362 29.7413 33.3687 29.7239C33.441 29.3755 33.5291 29.0265 33.6136 28.683C33.6221 28.6664 33.6273 28.6483 33.629 28.6297L33.7667 28.1466C33.8892 27.7326 34.0196 27.3266 34.1654 26.9219C34.2303 26.7265 34.3068 26.5349 34.3797 26.3396C34.4722 26.102 34.5677 25.8607 34.6675 25.6305C34.8243 25.2668 34.989 24.9024 35.1617 24.5466C35.2572 24.3586 35.357 24.1596 35.4605 23.9716C35.525 23.8327 35.5965 23.6972 35.6748 23.5657C35.8542 23.2374 36.0422 22.9116 36.2418 22.5975Z" fill="black"/>
</g>
<g style="mix-blend-mode:multiply" opacity="0.08">
<path d="M57.7546 12.6628C57.038 12.3702 56.3013 12.1293 55.5501 11.9421C55.3428 11.8661 55.1265 11.8173 54.9066 11.797H54.8986C53.6566 11.5407 52.3885 11.4326 51.1211 11.4749C51.1024 11.4694 51.0827 11.4682 51.0635 11.4712C45.9106 11.3371 37.949 12.5631 27.7608 18.5745L34.5388 11.797C34.7495 11.6855 34.9601 11.5667 35.1787 11.4632C35.3092 11.3947 35.4353 11.3291 35.5615 11.2716C35.5657 11.2679 35.5768 11.2716 35.581 11.2679C35.7115 11.1987 35.8376 11.1418 35.9638 11.0842C36.0899 11.0266 36.232 10.9618 36.3704 10.9079C36.405 10.8866 36.4422 10.8699 36.4812 10.8583C36.6692 10.7701 36.8608 10.6935 37.0598 10.6133C37.14 10.579 37.2246 10.5485 37.3048 10.5215C37.581 10.4144 37.8528 10.3188 38.1247 10.2306C38.2411 10.1842 38.3601 10.1445 38.481 10.1118C38.6078 10.0695 38.7223 10.031 38.8485 9.99667C38.971 9.95075 39.0934 9.92013 39.2201 9.88584C39.5416 9.79338 39.8638 9.70949 40.1896 9.63662C40.4694 9.57171 40.7528 9.50992 41.0284 9.45665C41.0939 9.44501 41.1552 9.42971 41.2201 9.41807C41.3732 9.39541 41.5263 9.3648 41.6837 9.33785C41.841 9.31091 41.9978 9.29187 42.1509 9.2686C42.4503 9.22267 42.7564 9.18471 43.0516 9.15776L43.5115 9.1119C43.6566 9.09659 43.8103 9.08857 43.9597 9.07693H44.0056C44.2965 9.05428 44.5843 9.04264 44.863 9.03897C45.1734 9.02733 45.4752 9.02733 45.7753 9.03897C46.0753 9.0506 46.3729 9.05434 46.6791 9.06965C46.959 9.08128 47.2346 9.10388 47.5181 9.12715C47.5375 9.13498 47.5586 9.13749 47.5793 9.13456C47.8854 9.16517 48.1843 9.20375 48.4831 9.24172C48.7819 9.27968 49.0851 9.32989 49.3839 9.38378C49.6827 9.43767 49.9736 9.49088 50.2724 9.55211C50.2877 9.56007 50.2919 9.56381 50.3072 9.55585C50.5908 9.62504 50.878 9.68989 51.1615 9.76705C51.3685 9.82032 51.5791 9.87059 51.7861 9.93918C51.9312 9.97775 52.0696 10.0237 52.2111 10.0659C52.3525 10.1082 52.4836 10.154 52.6134 10.2C52.7555 10.2416 52.8852 10.2882 53.0237 10.3341C53.2722 10.4223 53.5215 10.5178 53.7707 10.6133C53.993 10.7058 54.2152 10.7971 54.4295 10.8895C54.5483 10.9391 54.6635 10.993 54.7743 11.0426C54.939 11.1081 55.0964 11.1883 55.2532 11.2612C55.3836 11.3224 55.5177 11.3873 55.6481 11.4565C55.6751 11.4681 55.7247 11.4951 55.7939 11.533L56.2421 11.7897C56.7669 12.0928 57.4717 12.4988 57.7013 12.6292C57.7184 12.6415 57.7361 12.6527 57.7546 12.6628Z" fill="black"/>
</g>
<g style="mix-blend-mode:multiply" opacity="0.25">
<path d="M64.8925 46.6669C64.8845 46.6669 64.8845 46.6669 64.8808 46.6712C63.9961 46.9081 63.0981 47.0921 62.1914 47.2223C57.3419 47.9276 52.3941 47.0486 48.0843 44.716C47.1121 44.1933 46.181 43.5978 45.2987 42.9347C45.3563 42.9616 45.6281 43.1184 46.0727 43.356C46.5669 43.6278 47.2833 43.9995 48.1492 44.3969C48.5937 44.5886 49.0609 44.8029 49.5667 45.0025C49.8196 45.1097 50.0842 45.2052 50.3561 45.3014C50.6279 45.3975 50.8925 45.5004 51.176 45.5922C51.7393 45.7876 52.329 45.9486 52.9267 46.1097C53.5243 46.2707 54.1452 46.4085 54.7637 46.5193C55.3809 46.6461 56.0055 46.7416 56.6222 46.8145C57.2388 46.8873 57.8469 46.9449 58.4421 46.9718C59.0373 46.9988 59.6055 47.0214 60.1511 47.0178C60.6967 47.0141 61.2007 47.0025 61.6912 46.9718C62.1816 46.9412 62.6029 46.918 63.0016 46.88C63.4002 46.842 63.7296 46.8028 64.0132 46.7722C64.5361 46.7085 64.8539 46.6669 64.8925 46.6669Z" fill="black"/>
</g>
<g style="mix-blend-mode:multiply" opacity="0.25">
<path d="M68.3407 11.7854C69.9337 14.993 70.7501 18.5304 70.7241 22.1117C70.6982 25.693 69.8306 29.2181 68.1913 32.4024C67.9115 32.9425 67.6126 33.4709 67.2869 33.9884C67.3138 33.9075 67.4516 33.5861 67.6782 33.0839C67.797 32.7967 67.996 32.4367 68.1337 32.046C68.2832 31.6284 68.5012 31.1606 68.6585 30.6548C68.743 30.4019 68.8312 30.1379 68.9267 29.8655C69.0076 29.5862 69.0878 29.2984 69.176 29.0039C69.2709 28.7043 69.3502 28.3999 69.4135 28.0921C69.4827 27.7774 69.5746 27.4632 69.6358 27.1338C69.6971 26.8043 69.762 26.4712 69.8238 26.1338C69.8857 25.7964 69.9157 25.4517 69.9689 25.1069C70.0222 24.7622 70.0534 24.4101 70.0841 24.0574C70.1147 23.7047 70.1533 23.3526 70.149 22.9962C70.1606 22.6398 70.1912 22.2871 70.1912 21.9344C70.1912 21.5817 70.1796 21.2259 70.1759 20.8775C70.1226 20.18 70.1147 19.4905 70.0192 18.8273C69.9616 18.1648 69.8391 17.5286 69.7509 16.9193C69.6897 16.6205 69.6242 16.3253 69.5672 16.0461C69.5205 15.7697 69.4592 15.496 69.3835 15.2261C69.2458 14.705 69.1306 14.2219 68.9965 13.8043C68.8624 13.3867 68.7669 13.0082 68.6481 12.7125C68.4748 12.2183 68.3713 11.8858 68.3407 11.7854Z" fill="black"/>
</g>
<g style="mix-blend-mode:multiply" opacity="0.25">
<path d="M34.9615 24.9654L34.6247 26.1901C34.5022 26.5961 34.4098 27.01 34.3063 27.4203C34.2028 27.8306 34.1189 28.2439 34.027 28.6499L33.9921 28.8073L33.9695 28.945L33.9119 29.2629L33.858 29.577L33.8317 29.7344L33.8201 29.8072C33.821 29.8005 33.8197 29.7936 33.8164 29.7876L33.8121 29.8605L33.6094 31.4048L33.5555 31.7875L33.5365 31.8837L33.5329 31.918L33.5286 31.9217L33.5329 31.9259V31.9333L33.5286 31.9529L33.5176 32.125L33.4753 32.9026C33.46 33.1635 33.4484 33.4201 33.4214 33.6766L33.3945 34.0636L33.3871 34.4163L33.3835 35.1707C33.3945 35.4279 33.3945 35.6882 33.3988 35.9448L33.4024 36.1401V36.186L33.3988 36.1903L33.4024 36.2013L33.3988 36.213L33.4098 36.3091L33.4331 36.6998L33.4557 37.0831L33.4637 37.2588L33.479 37.4505L33.5439 38.2282L33.6357 38.9795L33.678 39.3665L33.7319 39.7419C33.7472 39.9715 33.8164 40.2477 33.858 40.4969C33.9505 41.0021 34.0344 41.5159 34.103 42.0278C33.9958 41.7216 33.896 41.4154 33.8078 41.1044C33.7503 40.917 33.697 40.7253 33.6394 40.5373C33.5476 40.1699 33.4557 39.8093 33.3786 39.4418C33.302 39.0891 33.2292 38.7407 33.1679 38.3807C33.1067 38.0206 33.0608 37.6599 33.0148 37.2999C32.9689 36.9398 32.9383 36.5798 32.9113 36.2234C32.8844 35.867 32.8654 35.5033 32.8575 35.1352C32.8495 34.7672 32.8464 34.4108 32.8575 34.0471C32.8728 33.327 32.923 32.6026 33.0069 31.8825C33.0877 31.1734 33.2065 30.4741 33.3516 29.7748C33.3555 29.7566 33.3609 29.7388 33.3675 29.7215C33.4398 29.3731 33.528 29.024 33.6125 28.6805C33.6209 28.6639 33.6261 28.6458 33.6278 28.6272L33.7656 28.1441C33.888 27.7302 34.0185 27.3242 34.1642 26.9194C34.2291 26.7241 34.3057 26.5324 34.3785 26.3371C34.471 26.0995 34.5665 25.8582 34.6663 25.628C34.7625 25.41 34.8623 25.1877 34.9615 24.9654Z" fill="black"/>
</g>
<g style="mix-blend-mode:multiply" opacity="0.25">
<path d="M54.4281 10.8925C54.0717 10.7963 53.7307 10.7008 53.3743 10.6126L53.1104 10.5477C53.0142 10.5208 52.9493 10.5018 52.8532 10.4822L52.3247 10.3597L51.8036 10.2446L51.2672 10.1374L50.3058 9.95741H50.2899C50.2603 9.95741 50.2309 9.95368 50.2023 9.94639C50.199 9.9437 50.1949 9.94217 50.1907 9.94211L50.187 9.93843L49.5276 9.85393C49.413 9.83862 49.3095 9.81964 49.1944 9.81229L48.857 9.77371L48.5166 9.73146L48.3708 9.71615L48.1981 9.69717L47.5778 9.64328H47.5625C47.547 9.64138 47.5314 9.64138 47.516 9.64328C47.4933 9.64328 47.4744 9.63961 47.4395 9.63593C47.1639 9.62797 46.8883 9.60532 46.6238 9.59368L45.7616 9.5747L44.8805 9.58205L44.0299 9.61266H44.0066L44.003 9.60899L43.9993 9.61266C43.7881 9.6243 43.5774 9.63593 43.3594 9.65492L43.049 9.68921L42.7269 9.71982L42.0833 9.78106L41.7612 9.81964L41.4513 9.86189C41.3398 9.88087 41.2517 9.89251 41.1372 9.91516L40.834 9.96537L40.5126 10.0186L40.3516 10.0419C40.3304 10.0482 40.3086 10.052 40.2867 10.0536L40.2058 10.0725L39.5659 10.1987L38.9535 10.3291L38.9383 10.3371C38.7429 10.3787 38.5476 10.421 38.3443 10.4785L37.735 10.6359L37.13 10.7963L36.5287 10.98L36.5091 10.9837L36.4209 11.0106L36.4099 11.0143C36.1417 11.0988 35.8539 11.179 35.5784 11.2709C35.7088 11.2017 35.8349 11.1447 35.9611 11.0872C36.0872 11.0296 36.2293 10.9647 36.3677 10.9108C36.4023 10.8896 36.4396 10.8729 36.4785 10.8612C36.6665 10.7731 36.8581 10.6965 37.0571 10.6163C37.1373 10.582 37.2219 10.5514 37.3021 10.5244C37.5783 10.4173 37.8501 10.3218 38.122 10.2336C38.2384 10.1872 38.3574 10.1475 38.4784 10.1148C38.6051 10.0725 38.7197 10.034 38.8458 9.99967C38.9683 9.95374 39.0907 9.92312 39.2175 9.88883C39.5389 9.79637 39.8611 9.71248 40.1869 9.63961C40.4667 9.5747 40.7502 9.51285 41.0258 9.45958C41.0913 9.44794 41.1525 9.43263 41.2174 9.421C41.3705 9.39834 41.5235 9.36773 41.6809 9.34078C41.8383 9.31384 41.995 9.29486 42.1481 9.27159C42.4476 9.22566 42.7538 9.1877 43.049 9.16075L43.5088 9.11483C43.6539 9.09952 43.8076 9.09156 43.9571 9.07992H44.003C44.2938 9.05727 44.5816 9.04563 44.8602 9.04196C45.1707 9.03033 45.4726 9.03033 45.7727 9.04196C46.0727 9.05359 46.3702 9.05727 46.6764 9.07258C46.9563 9.08421 47.2318 9.10687 47.5153 9.13014C47.5347 9.13798 47.5559 9.14049 47.5766 9.13748C47.8828 9.1681 48.1816 9.20668 48.4804 9.24465C48.7792 9.28261 49.0824 9.33282 49.3812 9.38671C49.68 9.4406 49.9708 9.49387 50.2697 9.5551C50.285 9.56306 50.2893 9.56674 50.3046 9.55878C50.5881 9.62797 50.8753 9.69288 51.1588 9.77004C51.3658 9.82331 51.5764 9.87352 51.7834 9.94211C51.9285 9.98068 52.0669 10.0266 52.2083 10.0689C52.3498 10.1111 52.4809 10.157 52.6107 10.203C52.7528 10.2446 52.8826 10.2911 53.021 10.3371C53.2696 10.4252 53.5188 10.5208 53.768 10.6163C53.9922 10.7088 54.2144 10.8006 54.4281 10.8925Z" fill="black"/>
</g>
<g style="mix-blend-mode:screen" opacity="0.4">
<path d="M33.5282 31.9533C33.5247 31.942 33.5323 31.9344 33.5282 31.9308L33.5323 31.9344L33.5282 31.9533Z" fill="white"/>
</g>
<g style="mix-blend-mode:screen" opacity="0.4">
<path d="M47.2565 9.5668L47.4788 9.636H47.4402C47.3754 9.62393 47.3132 9.60048 47.2565 9.5668Z" fill="white"/>
</g>
<g style="mix-blend-mode:screen" opacity="0.4">
<path d="M50.0952 9.90782L50.1481 9.93007C50.1299 9.92417 50.1122 9.91672 50.0952 9.90782Z" fill="white"/>
</g>
<g style="mix-blend-mode:screen" opacity="0.4">
<path d="M50.207 9.94218L50.4826 9.91156C50.4563 9.92595 50.428 9.9363 50.3987 9.94218C50.3692 9.95234 50.3381 9.95755 50.3068 9.95749H50.2909L50.207 9.94218Z" fill="white"/>
</g>
<path d="M15.816 59.864C18.248 59.864 20.312 60.712 22.008 62.408C23.704 64.088 24.552 66.152 24.552 68.6C24.552 71.032 23.704 73.096 22.008 74.792C20.312 76.488 18.248 77.336 15.816 77.336C13.656 77.336 11.768 76.64 10.152 75.248C8.568 73.856 7.616 72.088 7.296 69.944H4.872V77H1.56V60.2H4.872V66.776H7.368C7.768 64.76 8.752 63.104 10.32 61.808C11.888 60.512 13.72 59.864 15.816 59.864ZM15.816 63.08C14.248 63.08 12.952 63.592 11.928 64.616C10.904 65.64 10.392 66.968 10.392 68.6C10.392 70.2 10.912 71.52 11.952 72.56C12.976 73.584 14.264 74.096 15.816 74.096C17.368 74.096 18.656 73.584 19.68 72.56C20.72 71.52 21.24 70.2 21.24 68.6C21.24 67 20.72 65.68 19.68 64.64C18.64 63.6 17.352 63.08 15.816 63.08ZM34.6005 69.536V65H37.6965V77H34.6005V72.44H29.8245V77H26.7285V65H29.8245V69.536H34.6005ZM43.5572 71.816L49.1972 65H51.5012V77H48.4772V70.184L42.8372 77H40.5332V65H43.5572V71.816ZM61.1539 68.36L67.6099 77H63.7939L57.7939 69.128V77H54.4819V60.2H57.7939V67.616L63.5539 60.2H67.3699L61.1539 68.36ZM78.2494 75.512C77.0334 76.728 75.5294 77.336 73.7374 77.336C71.9454 77.336 70.4414 76.728 69.2254 75.512C68.0094 74.296 67.4014 72.792 67.4014 71C67.4014 69.224 68.0094 67.728 69.2254 66.512C70.4574 65.28 71.9614 64.664 73.7374 64.664C75.5134 64.664 77.0174 65.28 78.2494 66.512C79.4814 67.744 80.0974 69.24 80.0974 71C80.0974 72.776 79.4814 74.28 78.2494 75.512ZM71.4094 73.376C72.0334 74 72.8094 74.312 73.7374 74.312C74.6654 74.312 75.4414 74 76.0654 73.376C76.6894 72.752 77.0014 71.96 77.0014 71C77.0014 70.04 76.6894 69.248 76.0654 68.624C75.4414 68 74.6654 67.688 73.7374 67.688C72.8094 67.688 72.0334 68 71.4094 68.624C70.8014 69.264 70.4974 70.056 70.4974 71C70.4974 71.944 70.8014 72.736 71.4094 73.376ZM90.1474 69.536V65H93.2434V77H90.1474V72.44H85.3714V77H82.2754V65H85.3714V69.536H90.1474ZM94.9041 65H105.536V67.976H101.792V77H98.6961V67.976H94.9041V65Z" fill="url(#paint4_linear_115_2)"/>
<defs>
<linearGradient id="paint0_linear_115_2" x1="214.388" y1="199.169" x2="214.388" y2="164.662" gradientUnits="userSpaceOnUse">
<stop stop-color="#00F3FF"/>
<stop offset="0.238" stop-color="#00EFFC"/>
<stop offset="0.44" stop-color="#00E5F4"/>
<stop offset="0.629" stop-color="#00D3E7"/>
<stop offset="0.81" stop-color="#00BAD4"/>
<stop offset="0.983" stop-color="#009BBC"/>
<stop offset="1" stop-color="#0098BA"/>
</linearGradient>
<linearGradient id="paint1_linear_115_2" x1="189.011" y1="194.93" x2="225.258" y2="194.93" gradientUnits="userSpaceOnUse">
<stop stop-color="#49A09D"/>
<stop offset="0.149" stop-color="#4A989B"/>
<stop offset="0.375" stop-color="#4E8396"/>
<stop offset="0.65" stop-color="#54618E"/>
<stop offset="0.96" stop-color="#5D3283"/>
<stop offset="1" stop-color="#5F2C82"/>
</linearGradient>
<linearGradient id="paint2_linear_115_2" x1="189.936" y1="171.496" x2="189.936" y2="206.203" gradientUnits="userSpaceOnUse">
<stop stop-color="#3E6896"/>
<stop offset="0.247" stop-color="#355881"/>
<stop offset="0.75" stop-color="#1F324E"/>
<stop offset="1" stop-color="#131D32"/>
</linearGradient>
<linearGradient id="paint3_linear_115_2" x1="217.208" y1="171.486" x2="181.766" y2="171.486" gradientUnits="userSpaceOnUse">
<stop stop-color="#233B55"/>
<stop offset="1" stop-color="#131D32"/>
</linearGradient>
<linearGradient id="paint4_linear_115_2" x1="0" y1="70" x2="102" y2="70" gradientUnits="userSpaceOnUse">
<stop stop-color="#023F86"/>
<stop offset="1" stop-color="#4AA09E"/>
</linearGradient>
</defs>
</svg>
