<svg width="55" height="55" viewBox="0 0 55 55" fill="none" xmlns="http://www.w3.org/2000/svg">
<g filter="url(#filter0_d_33_347)">
<circle cx="27.5" cy="23.5" r="23.5" fill="white"/>
</g>
<path d="M27.5 27.875C31.2279 27.875 34.25 24.8529 34.25 21.125C34.25 17.3971 31.2279 14.375 27.5 14.375C23.7721 14.375 20.75 17.3971 20.75 21.125C20.75 24.8529 23.7721 27.875 27.5 27.875Z" stroke="#1E1E1F" stroke-width="0.84375" stroke-miterlimit="10"/>
<path d="M17.2683 33.7803C18.3057 31.9847 19.7973 30.4938 21.5933 29.4572C23.3892 28.4207 25.4264 27.875 27.5001 27.875C29.5737 27.875 31.6109 28.4207 33.4068 29.4573C35.2028 30.4939 36.6944 31.9849 37.7317 33.7805" stroke="#1E1E1F" stroke-width="0.84375" stroke-linecap="round" stroke-linejoin="round"/>
<defs>
<filter id="filter0_d_33_347" x="0" y="0" width="55" height="55" filterUnits="userSpaceOnUse" color-interpolation-filters="sRGB">
<feFlood flood-opacity="0" result="BackgroundImageFix"/>
<feColorMatrix in="SourceAlpha" type="matrix" values="0 0 0 0 0 0 0 0 0 0 0 0 0 0 0 0 0 0 127 0" result="hardAlpha"/>
<feOffset dy="4"/>
<feGaussianBlur stdDeviation="2"/>
<feComposite in2="hardAlpha" operator="out"/>
<feColorMatrix type="matrix" values="0 0 0 0 0.898039 0 0 0 0 0.937255 0 0 0 0 0.988235 0 0 0 0.8 0"/>
<feBlend mode="normal" in2="BackgroundImageFix" result="effect1_dropShadow_33_347"/>
<feBlend mode="normal" in="SourceGraphic" in2="effect1_dropShadow_33_347" result="shape"/>
</filter>
</defs>
</svg>
