<svg width="61" height="55" viewBox="0 0 61 55" fill="none" xmlns="http://www.w3.org/2000/svg">
<g filter="url(#filter0_d_33_346)">
<rect x="4" width="53" height="47" rx="10" fill="white"/>
</g>
<path fill-rule="evenodd" clip-rule="evenodd" d="M39.4968 26.7259L37.8009 24.8711L37.6949 24.7651V20.3135C37.6976 19.0443 37.3692 17.7964 36.7423 16.693C36.1153 15.5895 35.2114 14.6686 34.1199 14.0211C33.0283 13.3737 31.7868 13.0221 30.5178 13.001C29.2488 12.9799 27.9963 13.2902 26.8838 13.901C26.819 13.9346 26.7616 13.9809 26.7149 14.037C26.6683 14.0932 26.6334 14.1582 26.6123 14.2281C26.5912 14.298 26.5844 14.3715 26.5922 14.4441C26.6 14.5167 26.6223 14.587 26.6578 14.6508C26.6932 14.7146 26.7411 14.7707 26.7986 14.8157C26.8562 14.8607 26.9221 14.8936 26.9926 14.9127C27.0631 14.9317 27.1367 14.9364 27.2091 14.9265C27.2814 14.9166 27.351 14.8922 27.4138 14.8549C28.3135 14.3277 29.3388 14.053 30.3815 14.06C33.8043 14.0645 36.5775 16.8378 36.582 20.2605V24.6591H24.1811V20.2605C24.1672 19.3838 24.3482 18.5149 24.711 17.7167C24.7648 17.5906 24.7668 17.4484 24.7166 17.3209C24.6664 17.1933 24.5681 17.0906 24.4428 17.035C24.3176 16.9793 24.1755 16.9751 24.0472 17.0234C23.9189 17.0716 23.8147 17.1683 23.7571 17.2927C23.3393 18.2264 23.1227 19.2376 23.1212 20.2605V24.9771L21.5313 26.7259C21.1726 27.1142 20.982 27.6286 21.0013 28.1568V29.6937C21.002 30.2416 21.22 30.7669 21.6075 31.1544C21.9949 31.5418 22.5202 31.7598 23.0682 31.7605H27.0428C27.1734 32.4405 27.5348 33.0544 28.0659 33.4986C28.597 33.9428 29.2653 34.19 29.9576 34.1983C31.3911 34.1983 32.6187 33.1713 32.8723 31.7605H37.9069C38.4548 31.7598 38.9801 31.5418 39.3676 31.1544C39.755 30.7669 39.973 30.2416 39.9737 29.6937V28.1568C40.0718 27.6295 39.8916 27.089 39.4968 26.7259ZM30.0106 33.1384C29.5945 33.138 29.1896 33.0038 28.8556 32.7557C28.5216 32.5076 28.2763 32.1587 28.1557 31.7605H31.8654C31.7381 32.1546 31.4909 32.4992 31.1584 32.7462C30.8259 32.9932 30.4247 33.1303 30.0106 33.1384ZM39.0198 29.6937C39.0198 29.9607 38.9137 30.2169 38.7249 30.4057C38.5361 30.5945 38.2799 30.7006 38.0129 30.7006H23.0682C22.8011 30.7006 22.545 30.5945 22.3562 30.4057C22.1673 30.2169 22.0612 29.9607 22.0612 29.6937V28.1568C22.0689 27.9038 22.1623 27.6608 22.3262 27.4679L23.8631 25.772H37.165L38.7018 27.4679C38.8657 27.6608 38.9592 27.9038 38.9668 28.1568V29.6937H39.0198Z" fill="#1E1E1F"/>
<defs>
<filter id="filter0_d_33_346" x="0" y="0" width="61" height="55" filterUnits="userSpaceOnUse" color-interpolation-filters="sRGB">
<feFlood flood-opacity="0" result="BackgroundImageFix"/>
<feColorMatrix in="SourceAlpha" type="matrix" values="0 0 0 0 0 0 0 0 0 0 0 0 0 0 0 0 0 0 127 0" result="hardAlpha"/>
<feOffset dy="4"/>
<feGaussianBlur stdDeviation="2"/>
<feComposite in2="hardAlpha" operator="out"/>
<feColorMatrix type="matrix" values="0 0 0 0 0.898039 0 0 0 0 0.937255 0 0 0 0 0.988235 0 0 0 0.8 0"/>
<feBlend mode="normal" in2="BackgroundImageFix" result="effect1_dropShadow_33_346"/>
<feBlend mode="normal" in="SourceGraphic" in2="effect1_dropShadow_33_346" result="shape"/>
</filter>
</defs>
</svg>
