<svg width="26" height="23" viewBox="0 0 26 23" fill="none" xmlns="http://www.w3.org/2000/svg">
<path d="M24.331 5.11111H15.7273C15.7486 4.97269 15.7593 4.82894 15.7593 4.68519V0.425926C15.7593 0.191667 15.5676 0 15.3333 0H10.2222C9.98796 0 9.7963 0.191667 9.7963 0.425926V4.68519C9.7963 4.82894 9.80694 4.97269 9.82824 5.11111H1.22454C0.54838 5.11111 0 5.65949 0 6.33565V21.7755C0 22.4516 0.54838 23 1.22454 23H24.331C25.0072 23 25.5556 22.4516 25.5556 21.7755V6.33565C25.5556 5.65949 25.0072 5.11111 24.331 5.11111ZM10.6481 0.851852H14.9074V4.68519C14.9074 5.86181 13.9544 6.81482 12.7778 6.81482C11.6012 6.81482 10.6481 5.86181 10.6481 4.68519V0.851852ZM24.7037 21.7755C24.7037 21.9831 24.5387 22.1481 24.331 22.1481H1.22454C1.0169 22.1481 0.851852 21.9831 0.851852 21.7755V6.33565C0.851852 6.12801 1.0169 5.96296 1.22454 5.96296H10.0838C10.563 6.96921 11.5905 7.66667 12.7778 7.66667C13.965 7.66667 14.9926 6.96921 15.4718 5.96296H24.331C24.5387 5.96296 24.7037 6.12801 24.7037 6.33565V21.7755Z" fill="white"/>
<path d="M23.4259 8.51852H2.12962C1.89536 8.51852 1.7037 8.71019 1.7037 8.94445V20.8704C1.7037 21.1046 1.89536 21.2963 2.12962 21.2963H23.4259C23.6602 21.2963 23.8518 21.1046 23.8518 20.8704V8.94445C23.8518 8.71019 23.6602 8.51852 23.4259 8.51852ZM23 20.4444H2.55555V9.37037H23V20.4444ZM12.7778 4.25926C13.4805 4.25926 14.0555 3.68426 14.0555 2.98148C14.0555 2.2787 13.4805 1.7037 12.7778 1.7037C12.075 1.7037 11.5 2.2787 11.5 2.98148C11.5 3.68426 12.075 4.25926 12.7778 4.25926ZM12.7778 2.55556C13.012 2.55556 13.2037 2.74722 13.2037 2.98148C13.2037 3.21574 13.012 3.40741 12.7778 3.40741C12.5435 3.40741 12.3518 3.21574 12.3518 2.98148C12.3518 2.74722 12.5435 2.55556 12.7778 2.55556Z" fill="white"/>
<path d="M3.83332 20.0185H10.6481C10.8824 20.0185 11.0741 19.8269 11.0741 19.5926V17.8889C11.0741 16.4727 10.3021 15.2375 9.1574 14.572C9.15207 14.5667 9.14142 14.5613 9.1361 14.556C9.1148 14.5454 9.09351 14.5347 9.07221 14.5241C9.06689 14.5241 9.06156 14.5188 9.06156 14.5188C9.00832 14.4921 8.96041 14.4655 8.90716 14.4389C8.90184 14.4336 8.89652 14.4336 8.89119 14.4282C8.85925 14.4123 8.8273 14.3963 8.79536 14.3856C9.40763 13.9171 9.80161 13.1824 9.80161 12.3572C9.80161 10.9463 8.65693 9.80162 7.24605 9.80162C5.83517 9.80162 4.6905 10.9463 4.6905 12.3572C4.6905 13.1824 5.08448 13.9225 5.69675 14.3856C5.6648 14.4016 5.63286 14.4176 5.60092 14.4282C5.59559 14.4336 5.59027 14.4336 5.58494 14.4389C5.5317 14.4655 5.47846 14.4921 5.43054 14.5188C5.42522 14.5188 5.4199 14.5241 5.4199 14.5241C5.3986 14.5347 5.3773 14.5454 5.35601 14.556C5.34536 14.5613 5.34004 14.5667 5.33471 14.572C4.19004 15.2375 3.41804 16.4727 3.41804 17.8889V19.5926C3.4074 19.8269 3.59906 20.0185 3.83332 20.0185ZM6.31434 15.0565C6.34096 15.0458 6.37291 15.0405 6.39953 15.0299C6.41017 15.0245 6.42082 15.0245 6.42615 15.0192C6.95323 14.8701 7.52823 14.8701 8.05531 15.0192C8.06596 15.0245 8.07661 15.0245 8.08193 15.0299C8.10855 15.0405 8.1405 15.0458 8.16712 15.0565C8.17244 15.0565 8.17777 15.0618 8.18309 15.0618L7.24073 16.0095L6.29304 15.0618C6.29837 15.0618 6.30369 15.0565 6.31434 15.0565ZM10.2222 17.8889V19.1667H7.66666V16.7868L8.9817 15.4718C9.7324 16.0148 10.2222 16.8933 10.2222 17.8889ZM7.24073 10.6481C8.17777 10.6481 8.94443 11.4148 8.94443 12.3519C8.94443 13.2889 8.17777 14.0556 7.24073 14.0556C6.30369 14.0556 5.53703 13.2889 5.53703 12.3519C5.53703 11.4148 6.30369 10.6481 7.24073 10.6481ZM4.25925 17.8889C4.25925 16.8933 4.74906 16.0148 5.49976 15.4718L6.8148 16.7868V19.1667H4.25925V17.8889ZM16.6111 11.0741H21.7222C21.9565 11.0741 22.1481 10.8824 22.1481 10.6481C22.1481 10.4139 21.9565 10.2222 21.7222 10.2222H16.6111C16.3768 10.2222 16.1852 10.4139 16.1852 10.6481C16.1852 10.8824 16.3768 11.0741 16.6111 11.0741ZM13.2037 12.7778H21.7222C21.9565 12.7778 22.1481 12.5861 22.1481 12.3519C22.1481 12.1176 21.9565 11.9259 21.7222 11.9259H13.2037C12.9694 11.9259 12.7778 12.1176 12.7778 12.3519C12.7778 12.5861 12.9694 12.7778 13.2037 12.7778ZM13.2037 14.4815H21.7222C21.9565 14.4815 22.1481 14.2898 22.1481 14.0556C22.1481 13.8213 21.9565 13.6296 21.7222 13.6296H13.2037C12.9694 13.6296 12.7778 13.8213 12.7778 14.0556C12.7778 14.2898 12.9694 14.4815 13.2037 14.4815ZM13.2037 16.1852H21.7222C21.9565 16.1852 22.1481 15.9935 22.1481 15.7593C22.1481 15.525 21.9565 15.3333 21.7222 15.3333H13.2037C12.9694 15.3333 12.7778 15.525 12.7778 15.7593C12.7778 15.9935 12.9694 16.1852 13.2037 16.1852ZM21.7222 17.037H18.7407C18.5065 17.037 18.3148 17.2287 18.3148 17.463C18.3148 17.6972 18.5065 17.8889 18.7407 17.8889H21.7222C21.9565 17.8889 22.1481 17.6972 22.1481 17.463C22.1481 17.2287 21.9565 17.037 21.7222 17.037ZM21.7222 18.7407H15.7592C15.525 18.7407 15.3333 18.9324 15.3333 19.1667C15.3333 19.4009 15.525 19.5926 15.7592 19.5926H21.7222C21.9565 19.5926 22.1481 19.4009 22.1481 19.1667C22.1481 18.9324 21.9565 18.7407 21.7222 18.7407Z" fill="white"/>
</svg>
