<svg width="26" height="16" viewBox="0 0 26 16" fill="none" xmlns="http://www.w3.org/2000/svg">
<path d="M12.6575 0.00087287C12.093 0.00202618 11.5519 0.226802 11.1527 0.625997C10.7535 1.02519 10.5287 1.56629 10.5276 2.13083C10.529 2.69523 10.7538 3.23609 11.153 3.6351C11.5522 4.03411 12.0931 4.25876 12.6575 4.25992C13.2221 4.25876 13.7632 4.03399 14.1624 3.63479C14.5616 3.2356 14.7863 2.6945 14.7875 2.12996C14.7863 1.56541 14.5616 1.02432 14.1624 0.625125C13.7632 0.22593 13.2221 0.00115331 12.6575 0V0.00087287ZM12.6575 0.873806C13.3611 0.873806 13.9146 1.42637 13.9146 2.13083C13.9146 2.83354 13.3611 3.38698 12.6575 3.38698C11.954 3.38698 11.4005 2.83354 11.4005 2.12996C11.4005 1.42637 11.954 0.872933 12.6575 0.872933V0.873806ZM8.29287 3.38698C7.72832 3.38814 7.18723 3.61291 6.78804 4.01211C6.38884 4.4113 6.16406 4.95239 6.16291 5.51694C6.1643 6.08133 6.38917 6.6222 6.78834 7.02121C7.18751 7.42022 7.72847 7.64487 8.29287 7.64603C8.85741 7.64487 9.39851 7.4201 9.7977 7.0209C10.1969 6.62171 10.4217 6.08061 10.4228 5.51607C10.4217 4.95152 10.1969 4.41043 9.7977 4.01123C9.39851 3.61204 8.85741 3.38726 8.29287 3.38611V3.38698ZM17.0746 3.38698C16.5102 3.38837 15.9693 3.61324 15.5703 4.01241C15.1713 4.41158 14.9466 4.95255 14.9455 5.51694C14.9469 6.08133 15.1718 6.6222 15.5709 7.02121C15.9701 7.42022 16.5111 7.64487 17.0755 7.64603C17.6398 7.64464 18.1807 7.41976 18.5797 7.02059C18.9787 6.62142 19.2034 6.08046 19.2045 5.51607C19.2034 4.95152 18.9786 4.41043 18.5794 4.01123C18.1802 3.61204 17.6391 3.38726 17.0746 3.38611V3.38698ZM8.29287 4.25992C8.99645 4.25992 9.54989 4.81248 9.54989 5.51694C9.54989 6.21965 8.99645 6.77309 8.29287 6.77309C7.58928 6.77309 7.03584 6.21965 7.03584 5.51607C7.03584 4.81248 7.58928 4.25904 8.29287 4.25904V4.25992ZM17.0746 4.25992C17.779 4.25992 18.3316 4.81248 18.3316 5.51694C18.3316 6.21965 17.779 6.77309 17.0746 6.77309C16.3719 6.77309 15.8184 6.21965 15.8184 5.51607C15.8184 4.81248 16.371 4.25904 17.0755 4.25904L17.0746 4.25992ZM3.9282 6.06863C3.36366 6.06979 2.82256 6.29456 2.42337 6.69376C2.02417 7.09295 1.7994 7.63405 1.79824 8.19859C1.79986 8.76275 2.02487 9.30331 2.42404 9.70199C2.82321 10.1007 3.36404 10.325 3.9282 10.3259C4.49252 10.325 5.03348 10.1005 5.43267 9.70168C5.83187 9.30281 6.05677 8.76203 6.05816 8.19772C6.05677 7.63333 5.8319 7.09246 5.43273 6.69345C5.03356 6.29444 4.4926 6.06979 3.9282 6.06863V6.06863ZM12.6575 6.06863C12.093 6.06979 11.5519 6.29456 11.1527 6.69376C10.7535 7.09295 10.5287 7.63405 10.5276 8.19859C10.5292 8.76275 10.7542 9.30331 11.1534 9.70199C11.5525 10.1007 12.0934 10.325 12.6575 10.3259C13.2219 10.325 13.7628 10.1005 14.162 9.70168C14.5612 9.30281 14.7861 8.76203 14.7875 8.19772C14.7861 7.63333 14.5612 7.09246 14.1621 6.69345C13.7629 6.29444 13.2219 6.06979 12.6575 6.06863V6.06863ZM21.3869 6.06863C20.8223 6.06979 20.2812 6.29456 19.882 6.69376C19.4828 7.09295 19.2581 7.63405 19.2569 8.19859C19.2585 8.76275 19.4835 9.30331 19.8827 9.70199C20.2819 10.1007 20.8227 10.325 21.3869 10.3259C21.9512 10.325 22.4921 10.1005 22.8913 9.70168C23.2905 9.30281 23.5154 8.76203 23.5168 8.19772C23.5154 7.63333 23.2906 7.09246 22.8914 6.69345C22.4922 6.29444 21.9513 6.06979 21.3869 6.06863V6.06863ZM3.9282 6.94157C4.63179 6.94157 5.18523 7.49413 5.18523 8.19859C5.18523 8.90218 4.63179 9.453 3.9282 9.453C3.22462 9.453 2.67118 8.90218 2.67118 8.19772C2.67118 7.49414 3.22462 6.94157 3.9282 6.94157V6.94157ZM12.6575 6.94157C13.3611 6.94157 13.9146 7.49413 13.9146 8.19859C13.9146 8.90218 13.3611 9.453 12.6575 9.453C11.954 9.453 11.4005 8.90218 11.4005 8.19772C11.4005 7.49414 11.954 6.94157 12.6575 6.94157V6.94157ZM21.3869 6.94157C22.0905 6.94157 22.6439 7.49413 22.6439 8.19859C22.6439 8.90218 22.0905 9.453 21.3869 9.453C20.6833 9.453 20.1298 8.90218 20.1298 8.19772C20.1298 7.49414 20.6833 6.94157 21.3869 6.94157V6.94157ZM2.34121 10.8122C1.72079 10.8133 1.12609 11.0602 0.687306 11.4988C0.248519 11.9375 0.00138432 12.5321 0 13.1525V16H7.8564V13.1525C7.85502 12.5321 7.60788 11.9375 7.1691 11.4988C6.73031 11.0602 6.13562 10.8133 5.51519 10.8122H2.34121ZM11.0705 10.8122C10.4501 10.8133 9.85543 11.0602 9.41664 11.4988C8.97785 11.9375 8.73072 12.5321 8.72934 13.1525V16H16.5857V13.1525C16.5844 12.5321 16.3372 11.9375 15.8984 11.4988C15.4596 11.0602 14.865 10.8133 14.2445 10.8122H11.0705V10.8122ZM19.7999 10.8122C19.1795 10.8133 18.5848 11.0602 18.146 11.4988C17.7072 11.9375 17.4601 12.5321 17.4587 13.1525V16H25.3151V13.1525C25.3137 12.5321 25.0666 11.9375 24.6278 11.4988C24.189 11.0602 23.5943 10.8133 22.9739 10.8122H19.7999ZM2.34121 11.6851H5.51519C6.33575 11.6851 6.98347 12.3319 6.98347 13.1525V15.1271H0.872934V13.1525C0.872934 12.3319 1.51978 11.6851 2.34121 11.6851V11.6851ZM11.0705 11.6851H14.2445C15.0651 11.6851 15.7128 12.3319 15.7128 13.1525V15.1271H9.60227V13.1525C9.60227 12.3319 10.2491 11.6851 11.0705 11.6851V11.6851ZM19.7999 11.6851H22.9739C23.7944 11.6851 24.4421 12.3319 24.4421 13.1525V15.1271H18.3316V13.1525C18.3316 12.3319 18.9784 11.6851 19.7999 11.6851V11.6851Z" fill="white"/>
</svg>
